FILE "Puppet Zoo Pilomy (Japan) (En,Ja).bin" BINARY
  TRACK 01 MODE2/2352
    INDEX 01 00:00:00
  TRACK 02 AUDIO
    INDEX 00 39:22:03
    INDEX 01 39:24:03
  TRACK 03 AUDIO
    INDEX 00 40:09:34
    INDEX 01 40:11:34
  TRACK 04 AUDIO
    INDEX 00 44:06:11
    INDEX 01 44:08:11
  TRACK 05 AUDIO
    INDEX 00 47:46:26
    INDEX 01 47:48:26
  TRACK 06 AUDIO
    INDEX 00 52:01:57
    INDEX 01 52:03:57
